<svg width="65" height="81" viewBox="0 0 65 81" fill="none" xmlns="http://www.w3.org/2000/svg">
<path d="M21.9432 3.20077L28.8183 7.21148C31.5243 10.4542 33.3292 14.5339 34.0796 18.6157C35.4099 25.8515 33.9496 34.0799 30.6128 40.4475C34.1878 43.7223 38.2171 46.3381 42.1025 48.6927C42.432 48.9198 42.7614 49.147 44.0452 49.87C47.4714 46.0753 48.8717 41.6941 50.1622 37.2371C51.0421 34.1983 52.0392 30.7543 53.6367 27.9671C54.4716 27.8136 55.5187 28.2925 56.5241 29.0666L56.814 30.6437C55.6804 33.3456 54.7589 36.6797 53.7447 40.031C52.6056 44.2683 51.5764 48.5813 48.8507 52.5349C56.1672 57.903 52.7116 55.2776 60.5218 58.6369C61.5689 59.1157 62.3035 59.4602 63.3506 59.939C64.4168 61.5652 64.5211 63.1763 63.5369 64.604C62.4673 65.5679 61.1249 65.0474 59.9851 64.5857C59.2675 64.334 58.406 63.821 57.3685 63.9159C50.0807 60.2687 54.7082 62.4869 46.5739 57.365C45.0842 59.1733 42.9963 61.3793 41.5066 63.1876L41.5994 63.1706C35.1521 70.8772 29.0248 78.2374 19.2768 80.509C17.1997 79.6441 15.9446 80.642 15.3785 80.1707C14.0756 78.3004 13.3464 76.4205 12.9883 74.4724C12.0844 69.5557 14.293 64.3545 16.5357 59.3389C17.745 56.5272 19.2156 53.5716 19.9099 50.5668L19.927 50.6596L23.877 42.9326C13.5142 37.1655 4.53879 29.0334 0.990916 18.0815L1.00797 18.1742C-0.67423 12.1539 0.131233 5.58037 4.87323 1.63971C5.91822 1.06398 6.99732 0.6738 8.01776 0.4862C12.0995 -0.264197 16.9958 1.32914 21.1158 2.87337C21.4282 3.00774 21.7235 3.04934 22.0359 3.18372L21.9432 3.20077ZM27.5585 14.444C24.6608 8.0717 16.2544 6.16466 9.62967 5.08089C7.37121 6.35922 5.68098 9.16342 4.89181 11.1307C4.98664 12.1681 5.08147 13.2056 5.30318 14.4116C7.21328 24.8016 16.0298 33.6341 26.3393 38.0683C28.8603 33.0016 31.0744 26.265 29.9999 20.4206C29.6418 18.4725 28.8955 16.4998 27.5585 14.444ZM41.0017 55.2246L40.7554 54.4068C39.3789 53.7008 37.5119 52.4137 35.3155 50.8995C33.5584 49.688 31.2862 48.2836 28.0768 46.4761C24.0149 53.0729 21.6911 59.7338 19.4259 66.1921C18.9396 67.72 18.3946 69.4505 17.8155 70.9955L17.8333 75.7874C27.9238 71.7266 34.8935 63.7321 41.0017 55.2246Z" fill="#FB87B1"/>
</svg>
