<svg width="68" height="81" viewBox="0 0 68 81" fill="none" xmlns="http://www.w3.org/2000/svg">
<path d="M11.4917 0.540527L13.1558 0.657715C13.7529 0.701926 14.3507 0.800112 14.937 0.915527L16.5776 1.22021L18.2183 1.54834C18.8642 1.67577 19.5042 1.86947 20.1167 2.11084L21.687 2.72021L23.2339 3.32959C23.9571 3.61475 24.6196 4.01549 25.2261 4.50146L26.5386 5.55615L27.8511 6.5874C28.2792 6.93119 28.6941 7.29513 29.0933 7.66553L30.312 8.79053L31.5073 9.91553C32.1116 10.4763 32.6091 11.1305 32.9839 11.8608L33.7573 13.3608L34.5073 14.8608C34.9052 15.6396 35.1453 16.4722 35.2104 17.3452L35.3276 19.0093L35.4683 20.6968C35.5121 21.302 35.5044 21.9181 35.4683 22.5249L35.3745 24.189L35.2808 25.8765C35.2434 26.4981 35.1498 27.1183 35.0229 27.728L34.6948 29.3687L34.3433 31.0093C34.2318 31.5452 34.0934 32.0768 33.9448 32.603L33.4995 34.2202L33.0308 35.8374C32.8792 36.3736 32.708 36.9097 32.5151 37.4312L31.9526 39.0015L31.3667 40.5483C31.2137 40.962 31.0352 41.3781 30.8745 41.7905L31.8823 42.564L33.1948 43.5718C33.5284 43.8287 33.8783 44.0853 34.2261 44.3218L36.9917 46.1968C37.369 46.4533 37.7564 46.7223 38.1401 46.9702L39.5464 47.8843L40.9761 48.7983C41.3561 49.0437 41.7447 49.2688 42.1245 49.5015L43.5308 50.3687L43.6948 50.4624C43.877 50.1753 44.0658 49.8925 44.2339 49.5952L45.0776 48.1421L45.8979 46.6655C46.0909 46.3237 46.2727 45.9682 46.437 45.6108L47.8433 42.564C47.9727 42.2822 48.0902 41.9958 48.1714 41.6968L48.5933 40.0562L49.0386 38.439C49.1516 38.0203 49.2473 37.5971 49.3433 37.1733L50.0933 33.8921C50.2833 33.0513 50.6985 32.13 51.1479 31.2437L52.6011 28.3374H52.6245C53.2921 26.8981 54.9571 26.2146 56.4448 26.814C57.9809 27.4349 58.7299 29.1919 58.1089 30.728L58.062 30.7983L58.0151 30.939L57.9683 31.0327L56.4917 33.9624C56.1045 34.7268 55.9759 35.1043 55.9526 35.2046L55.2026 38.4858C55.0875 38.9953 54.9637 39.5057 54.8276 40.0093L54.3823 41.6265L53.9604 43.2437C53.792 43.8669 53.5737 44.4851 53.3042 45.0718L51.8979 48.1187C51.6641 48.6272 51.3995 49.1315 51.1245 49.6187L50.3042 51.0952L49.4604 52.5483C49.251 52.9189 49.0076 53.2673 48.7808 53.6265L49.0386 53.7905C49.3624 53.9919 49.7064 54.1846 50.0464 54.353L51.5464 55.0796L53.0464 55.8296C53.397 56.003 53.759 56.1543 54.1245 56.2983L55.6714 56.9312L57.2417 57.5405C57.7839 57.7541 58.3178 57.9989 58.8354 58.2671L60.3354 59.0405L61.812 59.814C62.1276 59.9774 62.3426 60.0414 62.4448 60.0718L63.6167 60.4233H63.5933L65.187 60.8687L65.3979 60.939L65.6089 61.0327L65.7026 61.0796L64.437 63.7983L64.1792 64.3608L64.1089 64.5015L65.7026 61.0796C67.2035 61.7745 67.8479 63.5609 67.1558 65.064C66.5092 66.4572 64.949 67.0793 63.5229 66.6108V66.6343L61.9292 66.189H61.9058L60.7339 65.8374C60.1661 65.6686 59.6056 65.4114 59.0698 65.1343L56.0698 63.5874C55.736 63.4147 55.3876 63.2561 55.0386 63.1187L53.4917 62.5093L51.9214 61.8999C51.3963 61.6931 50.8795 61.447 50.3745 61.1968L48.8745 60.4702L47.3745 59.7202C46.8609 59.4658 46.3619 59.1796 45.8745 58.8765L45.4292 58.5952L44.7495 59.4624L43.7183 60.7749C43.4498 61.1128 43.1729 61.4561 42.9214 61.8062L41.9604 63.1655L40.9761 64.5249C40.5825 65.0726 40.1323 65.5872 39.6401 66.0483L37.2026 68.3452C36.7857 68.7359 36.3417 69.097 35.8901 69.4468L34.5542 70.478L33.2417 71.5093C32.993 71.7018 32.7549 71.9107 32.5386 72.1421L31.3901 73.3608L30.2417 74.603C29.7922 75.085 29.294 75.5229 28.7651 75.9155L27.4058 76.9233L26.0698 77.9077C25.4732 78.3496 24.8152 78.7139 24.1245 78.9858L22.5542 79.5952L21.0073 80.228C20.0294 80.6131 18.7173 80.7831 17.4214 80.1577L16.2729 79.5952L15.1011 79.0327C14.3558 78.673 13.7291 78.0743 13.3433 77.2749C12.9836 76.5281 12.9129 75.7865 12.9448 75.2124L13.1323 71.8843C13.1705 71.2096 13.2878 70.5459 13.4604 69.8921L14.3042 66.6577C14.4289 66.1865 14.5734 65.6985 14.7026 65.228L15.1479 63.6108L15.5698 62.0171C15.7191 61.4736 15.9126 60.9297 16.1089 60.3999L16.6948 58.8062L17.2808 57.2358C17.4461 56.7901 17.6103 56.3448 17.7729 55.8999L18.3354 54.3296L18.9214 52.7358C19.1436 52.13 19.4208 51.5386 19.7417 50.978L20.562 49.5249L21.4058 48.0718C21.62 47.6976 21.8198 47.3061 22.0151 46.9233L23.562 43.9233C23.6033 43.8422 23.6164 43.7475 23.6558 43.6655L23.0933 43.1968C22.7055 42.8777 22.3254 42.5465 21.9448 42.2124L20.6792 41.1108L19.3901 39.9858C19.1774 39.7999 18.9521 39.6362 18.7104 39.4937L17.2573 38.6265L15.8042 37.7827C15.2833 37.4776 14.7797 37.1409 14.3042 36.7749L11.6792 34.7593C11.112 34.3224 10.6028 33.8184 10.1558 33.2593L9.10107 31.9468L8.06982 30.6343C7.73835 30.2196 7.41669 29.7991 7.10889 29.3687L6.12451 28.0093L5.16357 26.6499C4.81431 26.1611 4.48892 25.6563 4.20264 25.1265L2.60889 22.1733C2.31293 21.6254 2.05085 21.0475 1.83545 20.4624L1.24951 18.8921L0.687012 17.2983C0.318941 16.296 0.236891 15.2326 0.499512 14.1812L0.897949 12.564L1.31982 10.9702C1.46553 10.3909 1.64057 9.81914 1.85889 9.25928L3.07764 6.11865C3.35679 5.40521 3.755 4.73248 4.27295 4.12646L5.23389 3.00146L6.17139 1.87646L6.9917 1.1499C7.85024 0.556776 8.85205 0.353701 9.8042 0.42334L11.4917 0.540527ZM28.1323 48.1421L27.3589 49.6421C27.1189 50.1127 26.8718 50.589 26.6089 51.0483L25.7886 52.5015L24.9448 53.9546C24.7907 54.2238 24.6521 54.5104 24.5464 54.7983L23.9839 56.3921L23.3979 57.9624C23.2327 58.4142 23.0736 58.8692 22.9058 59.3218L22.3198 60.8921L21.7339 62.4858C21.5986 62.8513 21.4615 63.2145 21.3589 63.5874L20.4683 66.8218C20.3443 67.2728 20.2363 67.7295 20.1167 68.1812L19.6948 69.7983L19.2495 71.4155C19.1788 71.6827 19.1475 71.9652 19.1323 72.2358L19.0386 73.8765L19.0151 74.228L19.3667 74.4155L20.3745 74.0171L21.9214 73.4077C22.1215 73.3289 22.3126 73.2289 22.4839 73.103L23.8433 72.0952L25.1792 71.1108C25.4166 70.935 25.6321 70.7195 25.8354 70.5015L26.9839 69.2827L28.1323 68.0405C28.5698 67.5716 29.0552 67.1437 29.562 66.7515L30.8745 65.7202L32.2104 64.7124C32.5114 64.4795 32.7994 64.2226 33.0776 63.9624L34.3198 62.814L35.5386 61.6655C35.7448 61.4723 35.9361 61.2617 36.1011 61.0327L37.0854 59.6499L38.0464 58.2905C38.3543 57.8621 38.6789 57.4383 39.0073 57.0249L40.062 55.7124L40.2729 55.4312L38.9839 54.6343C38.562 54.3758 38.1387 54.1089 37.7183 53.8374L36.2886 52.9233L34.8823 52.0093C34.4617 51.7375 34.0539 51.4468 33.6401 51.1655L32.2339 50.228L30.8511 49.2905C30.4053 48.9874 29.9659 48.6587 29.5386 48.3296L28.4604 47.4858L28.1323 48.1421ZM9.78076 6.89209L8.81982 8.01709C8.79325 8.04878 8.74455 8.1341 8.6792 8.29834L7.46045 11.439C7.33234 11.7671 7.21579 12.0929 7.13232 12.4233L6.73389 14.0405L6.38232 15.4233L6.89795 16.8062L7.48389 18.3999C7.59992 18.7141 7.72479 19.0217 7.88232 19.314L9.47607 22.2671C9.6432 22.5765 9.83706 22.8752 10.0386 23.1577L11.0229 24.5171L11.9839 25.8765C12.2291 26.2194 12.4924 26.5528 12.7573 26.8843L13.7886 28.1968L14.8433 29.5093C14.9933 29.6969 15.1549 29.8621 15.3354 30.0015L17.9604 32.0171C18.2322 32.2263 18.5216 32.4236 18.8276 32.603L20.2808 33.4468L21.7339 34.314C22.3107 34.6522 22.8483 35.0447 23.3511 35.4858L24.6167 36.5874L25.8823 37.7124C25.9105 37.7371 25.9479 37.7581 25.9761 37.7827L26.3042 36.9155L26.8901 35.3452C27.0282 34.9719 27.1562 34.5821 27.2651 34.1968L27.7104 32.603L28.1792 30.9858C28.2901 30.5935 28.3772 30.1908 28.4604 29.7905L28.812 28.1499L29.1401 26.5093C29.2082 26.1821 29.2609 25.835 29.2808 25.5015L29.3745 23.8374L29.4917 22.1499C29.5117 21.8061 29.4932 21.4585 29.4683 21.1187L29.2339 17.7905C29.2283 17.716 29.1993 17.6495 29.1636 17.5796L28.4136 16.103L27.6401 14.603C27.5805 14.4869 27.5127 14.3998 27.4292 14.3218L26.2104 13.1968L25.0151 12.0718C24.7237 11.8013 24.4176 11.5292 24.1011 11.2749L22.7886 10.2202L21.4761 9.18896C21.3377 9.07785 21.1946 8.97231 21.0308 8.90771L19.4839 8.29834L17.9136 7.68896C17.6389 7.581 17.3598 7.48835 17.0698 7.43115L15.4292 7.12646L13.7886 6.79834C13.4386 6.7293 13.0697 6.68431 12.7104 6.65771L11.0464 6.51709L10.1558 6.44678L9.78076 6.89209Z" fill="#FB87B1"/>
</svg>
