<svg width="83" height="47" viewBox="0 0 83 47" fill="none" xmlns="http://www.w3.org/2000/svg">
<path d="M28.555 46.5C28.195 46.5 27.655 44.76 27.295 41.46C26.755 36.24 27.055 29.46 27.895 22.5L26.395 22.86C25.915 23.58 24.715 22.68 24.655 22.32C24.535 22.02 25.195 20.64 25.915 21.06C26.635 20.88 27.355 20.7 28.135 20.58C28.975 14.28 30.115 8.04 31.435 2.94C31.255 2.76 31.135 2.52 31.135 2.28C31.135 1.68 32.275 0.959998 32.935 0.959998C33.475 0.959998 34.315 1.98 34.315 2.52C34.315 2.82 34.075 3.12 33.715 3.24C32.395 8.46 31.195 14.22 30.355 20.16C32.755 19.8 35.095 19.56 36.835 19.62C39.235 19.62 40.435 19.98 40.435 20.4C40.435 20.64 39.895 20.76 38.155 20.88C35.875 21.06 32.995 21.42 30.115 22.02C29.155 29.04 28.615 36.3 28.795 43.14C28.855 45.06 28.855 46.5 28.555 46.5ZM7.375 40.2C1.915 40.2 0.595 35.64 1.555 29.46C2.635 22.2 7.075 12.84 11.275 6.54C8.155 6.84 5.095 7.26 2.935 7.74C2.155 9 0.775 7.56 0.715 7.14C0.595 6.72 1.315 4.86 2.515 5.7C6.895 4.8 15.415 4.02 20.215 4.62C22.075 4.86 22.795 5.4 22.735 5.76C22.675 6.06 22.315 6.06 20.155 6.06C18.415 6.06 16.255 6.18 13.975 6.3C8.935 13.56 4.915 22.86 3.895 29.58C3.115 34.62 3.715 38.28 7.615 38.28C12.655 38.28 18.475 32.88 21.895 28.14C22.135 27.18 23.155 26.88 23.755 27.3C24.415 27.78 24.415 28.86 23.635 29.34C19.435 34.8 13.315 40.2 7.375 40.2ZM67.0867 42.66C66.7267 42.66 66.1867 41.64 65.9467 38.64C65.7067 35.94 65.6467 32.88 65.7667 29.7C63.4867 29.82 60.7267 30.24 58.7467 30.78C58.6267 30.9 58.4467 30.96 58.3267 31.02C56.4667 35.88 53.1667 39.54 49.2667 40.08C44.5267 39.6 42.0667 35.04 42.0667 28.86C42.0667 22.62 45.1267 15.12 50.1667 9.18C49.5067 8.7 48.7267 8.28 47.9467 7.92C46.3867 7.14 45.5467 6.54 45.5467 6.18C45.5467 5.64 47.2267 5.82 49.5667 6.84C50.2267 7.14 50.8267 7.44 51.4267 7.8C53.2267 5.82 55.3267 4.08 57.5467 2.64C57.7867 1.14 59.6467 2.1 59.8867 2.46C60.0667 2.82 60.1267 4.92 58.6867 4.44C56.7067 5.76 54.8467 7.26 53.2267 9C55.6867 10.86 57.6067 13.32 58.7467 16.32C61.2067 15.78 64.6867 15.36 67.3867 15.24C67.9867 11.58 68.7667 8.1 69.5467 5.1C69.3667 4.92 69.2467 4.68 69.2467 4.44C69.2467 3.84 70.4467 3.12 71.0467 3.12C71.6467 3.12 72.3667 4.14 72.3667 4.68C72.3667 4.98 72.1267 5.28 71.7067 5.4C70.9267 8.4 70.1467 11.76 69.4867 15.3C70.2067 15.66 70.0867 16.8 69.1867 16.92C68.5867 20.4 68.1067 24.18 67.7467 27.96C68.5867 28.26 68.4667 29.46 67.6267 29.64C67.3867 32.88 67.2667 36.18 67.3267 39.48C67.3267 41.76 67.3267 42.66 67.0867 42.66ZM77.0467 46.14C76.6867 46.14 76.1467 44.4 75.9067 41.82C74.5867 29.46 77.0467 12.78 79.5667 2.94C79.3867 2.76 79.2667 2.52 79.2667 2.28C79.2667 1.68 80.4667 0.959998 81.1267 0.959998C81.6667 0.959998 82.5067 1.92 82.5067 2.52C82.5067 2.82 82.2667 3.06 81.8467 3.24C79.3867 13.02 76.8667 27.36 77.2867 42.9C77.3467 45.18 77.3467 46.14 77.0467 46.14ZM44.3467 28.98C44.3467 33.9 45.9667 37.56 49.3267 38.34C54.1267 36.96 57.6667 30.24 57.6667 22.62C57.6667 17.16 55.6267 13.26 51.9667 10.38C47.2267 15.96 44.3467 22.92 44.3467 28.98ZM59.0467 28.74C61.0867 28.38 63.7267 28.08 65.8867 27.96C66.0667 24.36 66.4867 20.64 67.0867 16.98C64.5667 17.16 61.6867 17.58 59.2867 18.12C59.6467 19.5 59.8267 21 59.8267 22.62C59.8267 24.72 59.5267 26.82 59.0467 28.74Z" fill="#FB87B1"/>
</svg>
