<svg width="137" height="30" viewBox="0 0 137 30" fill="none" xmlns="http://www.w3.org/2000/svg">
<path d="M2.53825 20.744C2.13025 20.864 1.86625 20.84 1.57825 20.504C1.07425 19.928 0.57025 17.792 0.97825 17.312C1.36225 16.88 3.85825 16.424 6.64225 16.16C6.93025 14.84 7.36225 13.376 7.77025 12.752C8.03425 12.344 8.65825 11.936 9.35425 11.72C8.82625 11.456 8.22625 11.192 7.55425 10.928C6.35425 12.512 5.32225 14.12 4.93825 15.296C4.91425 15.416 4.55425 15.536 4.43425 15.536C4.29025 15.536 4.02625 15.104 3.81025 14.672C3.64225 14.336 3.47425 14.12 3.23425 13.952C2.94625 13.76 2.80225 13.448 2.80225 13.016C2.82625 11.504 5.25025 7.904 7.53025 5.672C6.59425 5.744 5.80225 5.84 5.39425 5.936C4.79425 6.08 4.69825 6.224 4.65025 6.512C4.33825 6.608 4.19425 6.608 3.97825 6.368C3.35425 5.744 2.77825 3.44 3.23425 3.056C4.05025 2.408 12.2103 2.12 13.6983 2.72C13.9863 2.816 14.1783 3.008 14.1783 3.152C14.1783 3.296 14.0343 3.512 14.1063 3.992C14.2503 4.688 14.3463 4.856 14.3463 5.024C14.3223 5.264 14.1783 5.384 13.7703 5.384L12.7383 5.408C12.1623 5.768 11.1063 6.776 9.97825 8.048C11.9703 9.176 13.7223 10.688 13.6983 11.624C13.6983 11.912 13.5543 12.2 13.4583 12.608C13.4103 12.824 13.3863 13.088 13.3863 13.544C13.3623 14.432 13.1223 14.576 12.6663 14.624C12.6423 14.504 12.5463 14.336 12.4263 14.144C12.1143 13.664 11.5143 13.064 10.5783 12.44C10.5783 12.464 10.5543 12.512 10.5303 12.536C10.1943 13.04 9.81025 14.552 9.54625 15.992C9.90625 15.968 10.2663 15.968 10.6263 15.968C13.0023 15.968 14.2983 16.208 14.4183 16.712C14.4662 16.904 14.3463 17.048 14.4423 17.432C14.5863 17.96 14.8983 18.344 14.8983 18.896C14.8983 19.184 14.8023 19.328 14.6343 19.352C14.3463 19.4 13.8183 19.232 11.4423 19.328C7.96225 19.472 3.47425 19.976 2.70625 20.48C2.61025 20.552 2.56225 20.624 2.53825 20.744ZM28.1586 16.064C27.6306 16.064 27.0306 15.368 26.6946 13.856C25.8306 13.976 24.7506 14.192 24.0066 14.384C23.0466 15.728 21.5586 16.736 19.6866 16.976C18.1266 16.712 15.8946 14.84 15.8706 11.696C15.8706 7.784 19.7346 1.928 22.2546 1.928C23.2146 1.928 24.5106 4.112 24.3186 4.928C24.2466 5.192 24.0066 5.36 23.8386 5.408C23.5266 5.144 23.0946 5.408 22.7106 5.744C22.9986 6.008 23.2866 6.272 23.5266 6.56C23.5506 6.56 23.5986 6.536 23.6466 6.536C24.2946 6.392 26.0466 6.128 27.1266 6.032C27.4146 4.76 27.7746 3.704 28.1106 3.2C28.0866 2.816 28.2786 2.552 28.6866 2.336C29.4546 1.904 30.6786 1.808 31.2066 1.832C32.0706 1.856 32.2146 2.168 32.2386 2.912C32.0946 2.936 31.8786 3.08 31.6626 3.488C30.8226 5.048 30.1266 8.336 29.9826 11.84C29.9586 12.824 29.9826 13.4 29.9586 13.832C29.9346 14.504 29.6706 14.672 28.9746 15.032C28.5906 15.248 28.4706 16.064 28.1586 16.064ZM19.2786 12.728C19.2786 13.568 19.4706 14.096 19.9026 14.144C21.3906 13.808 22.4466 11.912 22.4706 9.92C22.4946 8.84 22.1586 7.808 21.5586 7.016C20.1906 8.792 19.2786 11 19.2786 12.728ZM21.0786 25.64C18.3906 22.088 22.9026 15.56 25.6866 15.56C26.9346 15.56 28.3506 16.856 28.2786 17.552C28.2546 17.792 28.0866 17.936 27.9186 18.032C27.6546 17.792 27.2946 17.912 26.5986 18.536C28.0626 19.784 28.8066 21.032 28.8066 22.4C28.8066 24.848 26.4546 27.272 23.8386 27.584C22.8786 27.392 21.7026 26.48 21.0786 25.64ZM23.3826 23.936C23.3826 24.512 23.5986 24.848 23.9106 24.992C25.2786 24.44 26.3826 22.856 26.3826 21.392C26.3826 20.672 26.1186 20.024 25.5186 19.664C24.1986 21.2 23.3826 22.784 23.3826 23.936ZM24.8706 9.08C25.0386 9.68 25.1106 10.304 25.1106 10.904C25.1106 11.12 25.0866 11.36 25.0626 11.576C25.5666 11.504 26.0706 11.432 26.4546 11.384C26.4546 10.568 26.5266 9.656 26.6466 8.768C26.0226 8.864 25.3746 8.96 24.8706 9.08ZM33.1225 17.12C32.8585 17.24 32.5705 17.24 32.3545 16.976C31.7545 16.28 31.2505 14.336 31.5865 13.928C32.0905 13.232 38.0905 12.464 41.8345 12.464C44.4265 12.464 45.3145 12.8 45.4345 13.232C45.5065 13.448 45.3625 13.688 45.4585 14C45.5545 14.336 45.8425 14.696 45.8425 15.176C45.8425 15.44 45.7225 15.584 45.5545 15.608C45.2905 15.656 44.5465 15.512 42.3865 15.608L41.0905 15.68C40.9225 16.112 40.7785 16.616 40.6825 17.072C41.8105 17.336 42.3865 17.96 42.4585 18.752C43.3705 19.112 43.7065 19.76 43.7305 20.528C43.7785 22.568 41.9545 26.288 40.4665 28.184C40.0585 28.712 39.6985 29.048 39.4345 29.048C39.1465 29.048 38.7385 28.664 38.4265 27.944C37.9225 27.392 37.5865 26.84 37.9225 26.36C38.9785 24.8 40.5385 21.368 40.2505 20.528C39.4585 20.312 37.8025 20.696 36.9865 21.344C36.6505 21.608 36.5065 21.896 36.5545 22.136C36.4105 22.376 36.1225 22.424 35.8345 22.28C34.9945 21.872 34.1305 19.928 34.1305 19.064C34.1305 18.44 35.5945 17.648 37.2985 17.24C37.3465 16.88 37.4185 16.448 37.5385 15.992C35.4505 16.232 33.7465 16.568 33.3145 16.856C33.2185 16.928 33.1465 17.024 33.1225 17.12ZM38.1385 12.176C36.3625 12.056 33.8905 10.304 34.1065 7.712C34.3465 4.808 38.1385 0.727999 40.5625 0.727999C41.6425 0.727999 43.0825 2.744 42.8905 3.584C42.8425 3.824 42.5785 3.968 42.4585 3.992C42.2665 3.752 41.8825 3.8 41.2585 4.16C42.8665 5.336 43.8265 6.728 43.8265 8C43.8265 9.8 41.5945 11.84 38.1385 12.176ZM37.6345 8.552C37.5865 9.248 38.0425 9.752 38.4745 9.824C39.4825 9.56 41.0185 8.384 41.0185 7.232C41.0185 6.44 40.4905 5.6 39.8425 5.192C38.5705 6.368 37.6825 7.76 37.6345 8.552ZM56.4374 27.104C56.1014 27.2 55.8134 27.032 55.5974 26.696C55.2374 26.096 54.9014 24.56 55.1414 24.2C55.2134 24.104 55.3574 24.008 55.5974 23.912C55.4534 22.088 55.6454 18.56 56.4854 17.312C56.2934 16.4 58.1414 15.848 58.9814 15.848C59.5094 15.848 59.7254 16.04 59.7974 16.4C60.7814 16.136 61.7174 15.944 62.2454 15.992C63.0134 16.04 63.5174 16.736 63.8534 17.72C64.3334 18.08 64.8134 18.656 64.9094 19.016C65.1014 19.64 64.7174 21.56 64.2134 23.144C64.8374 23.264 65.1974 23.456 65.2934 23.696C65.3654 23.888 65.2454 24.08 65.2694 24.488C65.2934 24.896 65.5094 25.208 65.5094 25.664C65.5094 25.928 65.4374 26.096 65.2214 26.072C63.9494 25.88 57.7814 26.264 56.6534 26.84C56.5094 26.912 56.4614 26.984 56.4374 27.104ZM63.6374 16.112C62.8934 16.112 61.9334 14.648 61.9334 11.456C61.9334 8.456 62.8214 4.352 63.5894 3.2C63.5654 2.816 63.7574 2.552 64.1654 2.336C64.9334 1.904 66.1574 1.808 66.6854 1.832C67.5494 1.856 67.6934 2.168 67.7174 2.912C67.5734 2.936 67.3574 3.08 67.1414 3.488C66.3014 5.072 65.6054 8.36 65.4614 11.888C65.4374 12.872 65.4614 13.448 65.4374 13.88C65.4134 14.552 65.1494 14.72 64.4534 15.08C64.0694 15.296 63.9494 16.112 63.6374 16.112ZM52.3334 17.552C51.9974 17.552 51.7574 17.24 51.4934 16.448C51.1334 16.112 50.7494 15.632 50.7494 15.392C50.7494 15.248 50.8454 15.152 51.3494 14.792C54.2534 12.728 57.7334 7.664 57.7334 5.864C56.8934 5.696 55.4294 6.104 54.6134 6.872C54.3734 7.112 54.2054 7.352 54.2774 7.64C54.1334 7.904 53.7734 7.856 53.6054 7.784C52.8134 7.472 51.8774 5.528 51.9014 4.64C51.9254 3.608 54.8534 2.192 57.2294 2.192C58.6694 2.192 59.9174 2.96 59.9894 4.328C60.5174 4.664 61.2854 5.624 61.2854 6.416C61.2134 9.224 57.9734 13.88 55.1654 16.112C53.7974 17.192 52.8854 17.552 52.3334 17.552ZM58.7654 23.312C59.5574 23.216 60.3734 23.144 61.1414 23.096C61.5014 21.488 61.7894 19.472 61.7174 19.28C61.7174 19.16 60.1814 19.352 59.1494 19.688C58.9334 20.864 58.7894 22.16 58.7654 23.312ZM68.7241 17.888C68.4601 18.008 68.1721 18.008 67.9561 17.744C67.3561 17.048 66.8521 15.104 67.1881 14.696C67.4041 14.384 68.7481 14.048 70.5001 13.784C70.3081 13.544 70.0921 13.16 69.9001 12.896C69.7801 12.704 69.7321 12.608 69.5881 12.536C69.0361 12.296 68.8201 11.816 68.9401 11.024C69.1081 9.968 70.0441 8.144 71.2441 6.344V4.664C71.2441 4.088 71.5801 3.848 72.8761 4.136C73.9321 2.888 74.9881 1.856 75.8521 1.472C76.1161 1.352 76.4041 1.28 76.6201 1.28C78.0601 1.28 79.6921 2.168 79.8841 2.768C79.9561 3.008 79.8601 3.32 79.7161 3.512C79.5961 3.416 79.4041 3.44 79.0681 3.68C78.4681 4.088 77.5561 4.952 76.5961 6.032C78.0841 7.064 79.3801 8.264 79.7401 9.272C79.9321 9.776 79.8601 10.16 79.6921 10.568C79.6201 10.736 79.5241 11 79.5001 11.432C79.4281 12.296 79.4041 12.56 78.8041 12.608C78.7561 12.464 78.6601 12.296 78.5641 12.128C77.7721 10.88 76.0441 9.512 74.3881 8.672C72.9241 10.592 71.6281 12.56 71.3401 13.664C73.3081 13.4 75.6361 13.232 77.4361 13.232C80.0281 13.232 80.9161 13.568 81.0361 14C81.1081 14.216 80.9641 14.456 81.0601 14.768C81.1561 15.104 81.4441 15.464 81.4441 15.944C81.4441 16.208 81.3241 16.352 81.1561 16.376C80.8921 16.424 80.1481 16.28 77.9881 16.376C77.2921 16.4 76.5721 16.448 75.8521 16.496C76.8361 16.496 78.1801 18.152 77.9161 19.016C77.8441 19.28 77.6281 19.424 77.5081 19.448C77.3641 19.28 77.0761 19.376 76.4041 19.88C77.8201 20.984 78.4921 22.256 78.5401 23.528C78.5881 25.304 76.8361 27.296 73.5961 27.632C72.3481 27.608 69.5641 25.784 69.8521 23.096C70.1641 20.336 73.1401 16.88 75.4681 16.52C72.3961 16.76 69.4921 17.216 68.9161 17.624C68.8201 17.696 68.7481 17.792 68.7241 17.888ZM73.1881 24.272C73.1161 24.776 73.3321 25.136 73.6441 25.352C74.9881 25.064 76.1881 23.864 76.1641 22.832C76.1161 22.088 75.6841 21.464 75.0601 21.08C74.0281 22.208 73.3321 23.456 73.1881 24.272ZM94.6023 21.68C93.4263 21.68 92.6583 18.44 92.6583 14.576C92.6583 13.16 92.7543 11.624 92.9223 10.16C92.4423 10.232 91.9383 10.328 91.5063 10.448C91.1703 11.816 90.0423 13.016 88.4103 13.688C89.0823 13.568 89.7303 13.496 90.2583 13.448C91.3863 13.352 91.7703 13.472 91.8663 13.736C91.9383 14.024 91.7943 14.408 91.8663 14.768C91.9623 15.248 92.2023 15.584 92.2023 15.944C92.2023 16.136 92.1543 16.256 91.8183 16.304C90.9303 16.4 89.7543 16.592 88.6023 16.856C87.9543 17.792 87.3303 19.328 87.0183 20.96C86.9463 21.44 86.7783 21.608 86.1303 21.92C85.4823 22.256 85.2423 22.616 85.0742 22.616C84.7383 22.616 84.2343 22.472 84.0663 21.8C83.8503 20.84 84.2103 19.16 84.6903 17.888C84.2343 18.056 83.8983 18.176 83.7063 18.296C83.5143 18.416 83.4902 18.536 83.4902 18.632C83.2023 18.752 82.9623 18.704 82.7703 18.512C82.2663 18.008 81.6902 16.064 81.9303 15.536C82.1223 15.152 84.1383 14.552 86.2983 14.096C84.9062 13.736 82.5303 11.792 82.6743 9.32C82.8903 5.96 86.4183 1.808 88.7703 1.856C89.8023 1.856 91.1943 3.752 90.9543 4.616C90.8823 4.88 90.6663 5 90.5223 5.024C90.2583 4.736 89.8023 5 89.2983 5.36C90.1383 6.008 90.7863 6.776 91.1703 7.592C91.8903 7.472 92.7303 7.352 93.3303 7.28C93.6903 5.36 94.0983 3.848 94.4823 3.32C94.4103 2.864 94.6743 2.528 95.1543 2.288C95.8983 1.928 97.0023 1.808 97.6263 1.832C98.4903 1.856 98.6343 2.144 98.6583 2.912C98.5143 2.936 98.2743 3.104 98.0823 3.536C96.8583 6.2 96.1383 11.264 96.1383 16.304C96.1383 18.032 96.2583 18.92 96.2583 19.424C96.2583 20.096 95.9703 20.312 95.3943 20.648C95.0343 20.912 94.8903 21.68 94.6023 21.68ZM90.3783 26.528C90.2343 26.432 90.0183 26.216 89.8023 25.904C88.2903 26.36 87.2343 25.16 87.2343 23.432C87.2343 21.896 87.8823 20.024 88.4583 19.4C88.3623 18.464 90.2103 17.888 91.6503 17.888C92.6823 17.888 92.9703 18.248 92.7063 19.04C92.5623 19.016 92.3463 19.136 92.1303 19.472C91.4583 20.432 90.8103 22.64 90.9783 23.336C91.9143 23.36 94.0743 23.048 95.7783 22.304C96.3543 21.848 97.0263 22.424 97.3623 23.528C98.2743 24.296 98.4183 24.944 98.0583 25.184C96.2583 26.408 91.3623 27.128 90.3783 26.528ZM86.1303 10.472C86.0343 11.288 86.3943 11.624 86.8023 11.672C88.0742 11.408 89.1303 10.16 89.1303 8.792C89.1303 7.928 88.7463 7.04 88.1463 6.44C86.9943 7.712 86.2503 9.152 86.1303 10.472ZM108.278 17.648C105.11 17.816 101.486 18.44 99.5181 19.016C99.3261 19.448 98.7261 18.968 98.6781 18.8C98.6301 18.608 98.9421 17.912 99.3021 18.2C101.318 17.672 105.134 17.072 107.51 17.144C108.446 17.192 108.878 17.312 108.878 17.48C108.878 17.6 108.686 17.648 108.278 17.648ZM110.606 20.6C110.462 20.6 110.246 19.904 110.102 18.584C109.67 14.528 110.534 7.856 111.71 3.176C111.638 3.104 111.59 3.008 111.59 2.912C111.59 2.672 112.07 2.384 112.334 2.384C112.55 2.384 112.886 2.792 112.886 3.008C112.886 3.128 112.814 3.224 112.67 3.296C111.422 8.144 110.582 14.048 110.702 19.256C110.726 20.024 110.726 20.6 110.606 20.6ZM102.23 15.44C100.262 15.176 99.3741 13.544 99.4941 11.528C99.6141 9.248 100.91 6.752 102.902 4.784L102.23 4.4C101.678 4.088 101.39 3.896 101.414 3.728C101.462 3.536 102.014 3.632 102.734 3.944L103.43 4.256C104.15 3.632 104.966 3.056 105.83 2.576C105.974 2.024 106.67 2.408 106.742 2.552C106.814 2.696 106.742 3.464 106.214 3.296C105.494 3.704 104.822 4.16 104.198 4.688C105.95 5.768 107.246 7.448 107.126 9.8C106.958 12.824 104.582 15.248 102.23 15.44ZM100.43 11.456C100.31 13.28 100.958 14.456 102.326 14.696C104.366 14.408 106.142 12.392 106.286 9.752C106.406 7.592 105.254 6.176 103.622 5.192C101.75 6.968 100.55 9.248 100.43 11.456ZM131.867 16.112C131.747 16.112 131.531 15.488 131.435 14.528C131.315 13.016 131.411 10.976 131.699 8.864L131.507 8.912C131.339 9.2 130.859 8.84 130.811 8.696C130.763 8.552 131.027 8 131.315 8.168L131.819 8.048C132.083 6.296 132.467 4.52 132.947 2.912C132.875 2.84 132.827 2.768 132.827 2.672C132.827 2.408 133.307 2.144 133.571 2.144C133.763 2.144 134.075 2.552 134.075 2.792C134.075 2.912 133.979 3.032 133.811 3.08C133.355 4.568 132.971 6.2 132.659 7.88C133.547 7.736 134.411 7.64 135.059 7.64C136.019 7.616 136.523 7.736 136.523 7.928C136.523 8.048 136.283 8.096 135.707 8.144C134.747 8.216 133.667 8.384 132.539 8.648C132.203 10.736 132.011 12.896 132.011 14.864C131.987 15.728 131.987 16.112 131.867 16.112ZM127.619 26.672C125.363 26.672 124.187 25.976 124.187 24.848C124.187 23.48 125.795 22.328 128.507 20.624C130.643 19.28 131.195 18.872 131.195 18.224C131.195 17.648 130.571 17.12 129.155 17.12C127.979 17.12 126.611 17.48 125.483 18.104C125.387 18.56 124.739 18.248 124.643 18.08C124.571 17.888 124.715 17.168 125.099 17.384C126.251 16.784 127.811 16.376 129.179 16.376C131.075 16.376 132.035 17.264 132.035 18.248C132.035 19.208 131.315 19.712 128.843 21.272C126.587 22.712 125.027 23.744 125.027 24.8C125.027 25.496 125.819 25.928 127.763 25.928C129.347 25.928 131.459 25.256 132.563 24.416C132.707 23.912 133.451 24.176 133.451 24.68C133.451 24.872 133.307 24.992 133.067 25.016C131.555 26.024 129.275 26.672 127.619 26.672ZM129.875 3.44L128.627 3.464C127.427 4.952 125.771 8.84 125.531 11.648C125.363 13.616 125.891 14.096 127.211 13.808C127.931 13.64 128.915 13.16 129.851 12.248C129.923 12.2 130.019 12.152 130.115 12.152C130.331 12.152 130.499 12.32 130.499 12.536C130.499 12.632 130.451 12.728 130.379 12.8C129.347 13.784 128.243 14.336 127.379 14.504C126.227 14.744 125.435 14.528 125.027 13.76C124.571 14.072 124.019 14.384 123.491 14.552C121.523 15.152 120.203 14.216 120.491 11.528C120.755 8.888 122.387 5.432 123.587 3.848C122.315 3.992 121.259 4.16 120.467 4.304C120.299 4.76 119.723 4.328 119.675 4.112C119.603 3.92 119.939 3.224 120.299 3.536C122.339 3.128 126.371 2.768 129.011 2.912C129.851 2.96 130.475 3.032 130.475 3.248C130.475 3.344 130.235 3.416 129.875 3.44ZM121.283 11.6C121.043 13.76 121.811 14.312 123.251 13.856C123.755 13.688 124.355 13.376 124.787 13.016C124.715 12.632 124.691 12.152 124.739 11.6C124.979 8.912 126.419 5.36 127.643 3.512C126.611 3.56 125.603 3.632 124.691 3.728C123.635 4.616 121.571 8.696 121.283 11.6Z" fill="#FB87B1"/>
</svg>
