<svg width="74" height="60" viewBox="0 0 74 60" fill="none" xmlns="http://www.w3.org/2000/svg">
<path d="M30.08 46.5C29.72 46.5 29.18 44.76 28.82 41.46C27.8 32.04 29.48 15.9 32.72 2.94C32.48 2.76 32.36 2.52 32.36 2.28C32.36 1.68 33.56 0.959998 34.22 0.959998C34.7 0.959998 35.6 1.98 35.6 2.52C35.6 2.82 35.42 3.06 35.06 3.18C31.76 16.32 29.96 31.08 30.32 43.26C30.38 45.06 30.38 46.5 30.08 46.5ZM0.26 40.26C0.32 39.66 1.46 38.46 2.54 37.56C8.36 31.56 17.12 20.64 19.94 12.72C20.66 10.74 20.78 9.54 20.78 9.36C20.84 7.02 19.22 6.06 16.4 6.06C13.28 6.06 9.2 7.38 6.44 8.94C6.2 10.44 4.4 9.48 4.16 9.12C3.98 8.82 3.98 6.72 5.36 7.2C8.54 5.52 12.8 4.14 16.34 4.14C21.14 4.14 23.06 6.42 22.88 9.66C22.88 10.68 22.52 12 22.04 13.44C19.16 21.18 10.34 32.7 3.5 38.58C1.82 40.32 0.26 41.04 0.26 40.26ZM41.1823 37.2C40.4623 38.46 39.0223 36.9 38.9623 36.54C38.9023 36.12 39.5623 34.14 40.7623 35.04C49.6423 33.42 61.8223 32.04 69.8023 32.7C72.3223 32.94 74.0023 33.42 74.0023 33.96C74.0023 34.38 73.1023 34.44 70.6423 34.32C70.6423 34.32 67.5223 34.2 65.1223 34.26L63.8023 34.32C61.8223 39.12 60.4423 44.88 60.0823 49.98C60.0823 50.46 60.0223 52.5 59.4823 52.5C59.0623 52.5 58.5223 51.42 58.5223 49.08C58.5223 45.12 59.9023 39.06 61.6423 34.44C55.4023 34.8 48.3223 35.76 41.1823 37.2ZM56.2423 59.76C50.9023 59.76 47.0623 58.02 47.0623 53.34C47.0623 50.88 48.3223 47.22 49.7623 44.04C49.2823 42.54 51.3823 42.36 51.6823 42.48C51.9823 42.66 53.2423 44.28 51.7423 45C50.4823 47.82 49.3423 50.94 49.3423 53.4C49.3423 56.94 52.2223 57.9 56.5423 57.9C60.4423 57.9 64.4623 56.94 67.2223 55.56C67.9423 54.48 69.3223 55.02 69.3223 56.16C69.3223 56.82 68.9023 57.36 68.0623 57.36C64.7023 58.86 60.2623 59.76 56.2423 59.76ZM47.6623 28.8C46.0423 33 45.1423 31.5 46.2823 28.26C48.4423 21.9 52.1623 16.08 56.0623 11.34C55.6423 10.56 56.4823 9.72 57.2623 9.9C59.6623 7.14 62.0623 4.68 64.1623 2.76C58.5823 3 52.8223 3.6 48.7423 4.62C48.2023 5.64 46.8223 4.5 46.7023 4.02C46.5823 3.54 47.4223 1.8 48.2623 2.58C54.2623 1.26 64.0423 0.779997 69.2023 1.26C71.1823 1.5 72.6223 1.86 72.5623 2.34C72.5623 2.64 71.9023 2.7 70.9423 2.7C69.8023 2.7 68.6023 2.7 67.3423 2.7C64.8223 4.92 61.8223 7.62 58.8223 11.04C63.1423 15.3 67.2823 21.96 67.5223 27.36C67.6423 29.16 67.4023 30.3 66.9823 30.3C66.7423 30.3 66.5023 29.76 66.2623 28.32C65.5423 22.14 61.6423 16.56 57.5623 12.54C54.0223 16.8 50.5423 22.08 47.6623 28.8Z" fill="#1F3C28"/>
</svg>
