<svg width="154" height="27" viewBox="0 0 154 27" fill="none" xmlns="http://www.w3.org/2000/svg">
<path d="M5.568 26.104C5.232 26.2 4.944 26.032 4.728 25.696C4.368 25.096 4.032 23.56 4.272 23.2C4.344 23.104 4.488 23.008 4.728 22.912C4.584 21.088 4.776 17.56 5.616 16.312C5.424 15.4 7.272 14.848 8.112 14.848C8.64 14.848 8.856 15.04 8.928 15.4C9.912 15.136 10.848 14.944 11.376 14.992C12.144 15.04 12.648 15.736 12.984 16.72C13.464 17.08 13.944 17.656 14.04 18.016C14.232 18.64 13.848 20.56 13.344 22.144C13.968 22.264 14.328 22.456 14.424 22.696C14.496 22.888 14.376 23.08 14.4 23.488C14.424 23.896 14.64 24.208 14.64 24.664C14.64 24.928 14.568 25.096 14.352 25.072C13.08 24.88 6.912 25.264 5.784 25.84C5.64 25.912 5.592 25.984 5.568 26.104ZM12.768 15.112C12.192 15.112 11.472 14.2 11.184 12.28C10.224 12.424 9.072 12.64 8.352 12.856C7.416 13.912 6.072 14.656 4.44 14.872C2.976 14.68 0.504 12.736 0.552 9.736C0.648 6.064 4.368 0.879999 6.84 0.904C7.8 0.904 9.144 2.968 8.952 3.784C8.88 4.048 8.64 4.216 8.472 4.24C8.184 4 7.752 4.24 7.344 4.576C7.56 4.768 7.752 4.936 7.944 5.128C8.784 4.96 10.752 4.696 11.832 4.624C12.12 3.52 12.432 2.656 12.72 2.2C12.696 1.816 12.888 1.552 13.296 1.336C14.064 0.904 15.288 0.808 15.816 0.831999C16.68 0.855999 16.824 1.168 16.848 1.912C16.704 1.936 16.488 2.08 16.272 2.488C15.432 4.072 14.736 7.36 14.592 10.888C14.568 11.872 14.592 12.448 14.568 12.88C14.544 13.552 14.28 13.72 13.584 14.08C13.2 14.296 13.08 15.112 12.768 15.112ZM3.984 10.864C3.936 11.68 4.2 12.136 4.632 12.184C6.048 11.872 7.128 10.216 7.128 8.464C7.152 7.48 6.792 6.496 6.192 5.776C4.896 7.36 4.032 9.28 3.984 10.864ZM7.896 22.312C8.688 22.216 9.504 22.144 10.272 22.096C10.632 20.488 10.92 18.472 10.848 18.28C10.848 18.16 9.312 18.352 8.28 18.688C8.064 19.864 7.92 21.16 7.896 22.312ZM9.456 7.624C9.648 8.2 9.72 8.776 9.72 9.352C9.72 9.568 9.696 9.784 9.672 9.976C10.2 9.904 10.704 9.832 11.088 9.784C11.112 8.992 11.184 8.152 11.304 7.336C10.68 7.408 10.032 7.504 9.456 7.624ZM17.7319 16.888C17.4679 17.008 17.1799 17.008 16.9639 16.744C16.3639 16.048 15.8599 14.104 16.1959 13.696C16.4119 13.384 17.7559 13.048 19.5079 12.784C19.3159 12.544 19.0999 12.16 18.9079 11.896C18.7879 11.704 18.7399 11.608 18.5959 11.536C18.0439 11.296 17.8279 10.816 17.9479 10.024C18.1159 8.968 19.0519 7.144 20.2519 5.344V3.664C20.2519 3.088 20.5879 2.848 21.8839 3.136C22.9399 1.888 23.9959 0.855999 24.8599 0.472C25.1239 0.352 25.4119 0.279999 25.6279 0.279999C27.0679 0.279999 28.6999 1.168 28.8919 1.768C28.9639 2.008 28.8679 2.32 28.7239 2.512C28.6039 2.416 28.4119 2.44 28.0759 2.68C27.4759 3.088 26.5639 3.952 25.6039 5.032C27.0919 6.064 28.3879 7.264 28.7479 8.272C28.9399 8.776 28.8679 9.16 28.6999 9.568C28.6279 9.736 28.5319 10 28.5079 10.432C28.4359 11.296 28.4119 11.56 27.8119 11.608C27.7639 11.464 27.6679 11.296 27.5719 11.128C26.7799 9.88 25.0519 8.512 23.3959 7.672C21.9319 9.592 20.6359 11.56 20.3479 12.664C22.3159 12.4 24.6439 12.232 26.4439 12.232C29.0359 12.232 29.9239 12.568 30.0439 13C30.1159 13.216 29.9719 13.456 30.0679 13.768C30.1639 14.104 30.4519 14.464 30.4519 14.944C30.4519 15.208 30.3319 15.352 30.1639 15.376C29.8999 15.424 29.1559 15.28 26.9959 15.376C26.2999 15.4 25.5799 15.448 24.8599 15.496C25.8439 15.496 27.1879 17.152 26.9239 18.016C26.8519 18.28 26.6359 18.424 26.5159 18.448C26.3719 18.28 26.0839 18.376 25.4119 18.88C26.8279 19.984 27.4999 21.256 27.5479 22.528C27.5959 24.304 25.8439 26.296 22.6039 26.632C21.3559 26.608 18.5719 24.784 18.8599 22.096C19.1719 19.336 22.1479 15.88 24.4759 15.52C21.4039 15.76 18.4999 16.216 17.9239 16.624C17.8279 16.696 17.7559 16.792 17.7319 16.888ZM22.1959 23.272C22.1239 23.776 22.3399 24.136 22.6519 24.352C23.9959 24.064 25.1959 22.864 25.1719 21.832C25.1239 21.088 24.6919 20.464 24.0679 20.08C23.0359 21.208 22.3399 22.456 22.1959 23.272ZM43.6581 14.464C43.1781 14.464 42.5301 13.792 42.1941 12.256C40.9221 12.448 39.1701 12.808 38.7141 13.072C37.8501 13.792 36.7221 14.32 35.4021 14.488C33.9381 14.32 31.3941 12.352 31.4901 9.448C31.6101 5.824 35.2821 0.879999 37.7301 0.879999C38.7141 0.904 40.0581 2.92 39.8421 3.76C39.7701 4.024 39.5541 4.168 39.3861 4.192C39.0981 3.928 38.6661 4.192 38.2581 4.528C38.5221 4.768 38.7621 4.984 38.9781 5.224C39.0261 5.2 39.0981 5.2 39.1701 5.176C39.8181 5.032 41.6661 4.744 42.7221 4.672C43.0101 3.568 43.3221 2.632 43.6341 2.176C43.6101 1.816 43.8261 1.552 44.2101 1.336C44.9541 0.904 46.2021 0.808 46.7301 0.831999C47.5941 0.855999 47.7141 1.168 47.7381 1.912C47.5941 1.936 47.4021 2.08 47.1861 2.488C46.3941 3.928 45.6981 7.024 45.5301 10.384C45.5061 11.272 45.5301 11.824 45.5061 12.256C45.4581 12.904 45.2181 13.072 44.4981 13.432C44.0901 13.648 43.9941 14.464 43.6581 14.464ZM37.8261 26.128C37.6581 26.008 37.4661 25.744 37.2981 25.36C36.3381 25.384 35.7141 24.712 35.5701 24.088C34.9941 21.688 40.2981 18.016 42.3141 17.392C41.7861 16.672 39.1701 17.392 38.1141 18.16C37.7541 18.424 37.6821 18.592 37.7301 18.832C37.5141 19 37.2981 19.024 37.1301 18.952C36.4581 18.664 35.7861 16.648 35.7861 16.192C35.7861 15.16 39.1461 14.056 41.1141 14.056C42.8901 14.056 43.7301 15.016 43.7301 16.984C44.3301 17.44 45.6501 19.408 44.7621 19.816C43.5621 20.368 40.2741 22.264 39.5781 23.296C40.7781 23.32 42.7461 22.96 43.9941 22.168C44.5221 21.616 45.1461 21.976 45.5541 23.08C46.3701 23.968 46.4661 24.472 45.9381 24.88C43.0341 26.656 38.6421 26.8 37.8261 26.128ZM34.9221 10.552C34.8741 11.392 35.1381 11.8 35.5701 11.848C36.9621 11.56 38.0181 10 38.0181 8.32C38.0421 7.36 37.7061 6.4 37.0821 5.704C35.8101 7.24 34.9941 9.04 34.9221 10.552ZM40.4181 7.72C40.5381 8.2 40.6101 8.68 40.6101 9.16C40.6101 9.448 40.5861 9.712 40.5381 10C41.0661 9.904 41.5941 9.832 42.0021 9.784C42.0261 9.04 42.0981 8.224 42.2181 7.408C41.5941 7.48 40.9221 7.6 40.4181 7.72ZM52.4906 11.968C52.5626 7.072 56.3546 1.456 58.8026 1.456C59.9306 1.456 61.1546 3.856 60.9626 4.552C60.8906 4.816 60.7226 4.936 60.5546 4.984C60.2426 4.768 59.8346 4.984 59.4506 5.296C61.0106 6.616 61.9226 8.656 61.9466 10.72C61.9946 14.152 59.7386 17.104 56.3786 17.704C54.1466 17.176 52.4426 15.136 52.4906 11.968ZM55.8986 13.288C55.8986 14.272 56.1146 14.944 56.5706 14.872C58.0346 14.392 59.2826 12.136 59.2586 9.76C59.2346 8.368 58.8266 7.408 58.0826 6.832C56.7386 8.8 55.9226 11.344 55.8986 13.288ZM62.6666 13.024C62.6666 9.016 63.5786 3.736 64.3706 2.56C64.2986 2.08 64.5626 1.744 65.0426 1.528C65.7866 1.168 66.9626 1.048 67.5866 1.072C68.4506 1.096 68.5946 1.384 68.6186 2.152C68.4986 2.176 68.2346 2.344 68.0426 2.776C66.8426 5.368 66.2426 10.984 66.2426 14.416C66.2426 15.904 66.3626 16.576 66.3626 17.344C66.3626 18.016 66.1226 18.232 65.5466 18.568C65.1626 18.808 65.0666 19.6 64.7786 19.6C63.7946 19.6 62.6666 16.96 62.6666 13.024ZM80.8545 15.064C80.1825 15.064 79.2705 13.768 79.1745 10.936C78.9825 10.288 78.8625 9.328 78.8625 8.656C78.8625 8.152 78.9585 7.936 79.3425 7.792C79.6545 5.416 80.2785 3.04 80.8305 2.2C80.8065 1.816 81.0225 1.552 81.4065 1.336C82.1505 0.904 83.3505 0.808 83.8785 0.831999C84.7425 0.855999 84.8865 1.168 84.9105 1.912C84.7665 1.936 84.5505 2.08 84.3345 2.488C83.7825 3.496 83.3025 5.224 82.9905 7.264C83.3025 7.24 83.5665 7.216 83.7105 7.216C84.4065 7.216 84.6705 7.432 84.6705 7.624C84.6705 7.768 84.5745 7.912 84.5745 8.392C84.5745 8.896 84.8865 9.592 84.8145 10.12C84.7905 10.312 84.6945 10.408 84.4065 10.456C83.9985 10.504 83.3505 10.624 82.6545 10.768C82.6305 11.824 82.6545 12.376 82.6305 12.832C82.6065 13.504 82.3665 13.672 81.6705 14.032C81.2625 14.248 81.1665 15.064 80.8545 15.064ZM70.8225 16.96C70.6305 16.96 70.1985 16.336 69.9345 15.808C69.8385 15.616 69.7665 15.472 69.5985 15.328C69.0465 15.088 68.8065 14.632 68.8065 13.984C68.8065 12.016 71.2065 7.168 73.3665 4.6C72.4305 4.72 71.6625 4.84 71.2785 4.936C70.7985 5.056 70.6305 5.176 70.5585 5.392C70.2945 5.464 70.1265 5.44 69.8865 5.176C69.2385 4.432 68.8785 2.512 69.1905 2.152C69.6705 1.6 74.3985 1.168 76.6785 1.216C78.5985 1.24 79.2225 1.6 79.2705 1.936C79.2945 2.104 79.1745 2.272 79.2225 2.68C79.2705 3.16 79.5105 3.424 79.5105 3.784C79.5105 4.048 79.3905 4.144 78.9825 4.144H78.3825C77.6385 4.888 76.7505 6.016 75.8625 7.288C77.0625 9.208 77.9025 11.68 77.9025 12.64C77.9025 13.072 77.7345 13.36 77.4465 13.672C77.0865 14.056 76.7025 14.464 76.4865 14.752C76.2225 15.112 76.0065 15.232 75.8385 15.256C75.6945 15.28 75.4065 15.232 75.4065 15.112C75.3345 14.224 74.7825 12.328 73.8705 10.456C72.5025 12.856 71.4465 15.256 71.3505 16.648C71.3505 16.744 70.9425 16.96 70.8225 16.96ZM73.9185 24.64C71.2305 21.088 75.7425 14.56 78.5265 14.56C79.7745 14.56 81.1905 15.856 81.1185 16.552C81.0945 16.792 80.9265 16.936 80.7585 17.032C80.4945 16.792 80.1345 16.912 79.4385 17.536C80.9025 18.784 81.6465 20.032 81.6465 21.4C81.6465 23.848 79.2945 26.272 76.6785 26.584C75.7185 26.392 74.5425 25.48 73.9185 24.64ZM76.2225 22.936C76.2225 23.512 76.4385 23.848 76.7505 23.992C78.1185 23.44 79.2225 21.856 79.2225 20.392C79.2225 19.672 78.9585 19.024 78.3585 18.664C77.0385 20.2 76.2225 21.784 76.2225 22.936ZM87.1209 17.704C86.8809 17.752 86.6649 17.704 86.4729 17.488C85.9689 16.96 85.4649 14.92 85.8969 14.536C85.9689 14.464 86.1609 14.392 86.4249 14.32C86.0169 10.936 86.3049 4.984 87.1929 3.256C86.9289 2.368 88.7769 1.72 89.8089 1.72C90.3369 1.72 90.5529 1.888 90.6489 2.176C91.5369 1.96 92.4009 1.84 92.9529 1.864C93.8169 1.912 94.5129 2.896 94.6809 4.288C95.0649 4.672 95.4009 5.152 95.4249 5.512C95.5689 7.432 94.7049 11.488 93.9129 13.768C94.5129 13.792 95.2089 13.936 95.3049 14.32C95.3529 14.536 95.1849 14.632 95.2089 15.04C95.2329 15.424 95.5209 16.096 95.5209 16.288C95.5209 16.576 95.3529 16.6 94.9929 16.6C93.4809 16.6 88.6329 17.056 87.7449 17.296C87.2649 17.416 87.1449 17.536 87.1209 17.704ZM89.4729 13.888C89.9529 13.864 90.4809 13.816 90.9849 13.792C91.5609 11.536 92.1849 7.456 92.2089 5.728C92.2089 5.584 90.8169 5.776 89.9289 6.088C89.6169 8.464 89.4249 11.56 89.4729 13.888ZM95.9769 13.024C95.9769 9.016 96.8889 3.736 97.6809 2.56C97.6089 2.08 97.8729 1.744 98.3529 1.528C99.0969 1.168 100.273 1.048 100.897 1.072C101.761 1.096 101.905 1.384 101.929 2.152C101.809 2.176 101.545 2.344 101.353 2.776C100.153 5.368 99.5529 10.984 99.5529 14.416C99.5529 15.904 99.6729 16.576 99.6729 17.344C99.6729 18.016 99.4329 18.232 98.8569 18.568C98.4729 18.808 98.3769 19.6 98.0889 19.6C97.1049 19.6 95.9769 16.96 95.9769 13.024ZM102.615 18.208C102.351 18.304 102.207 18.232 102.111 17.776C101.607 17.152 101.583 16.912 102.375 16.696C104.319 16.168 108.615 15.592 110.295 15.664C111.447 15.712 111.999 15.952 111.999 16.216C111.999 16.528 111.399 16.816 110.247 16.936C108.543 17.08 105.087 17.584 102.615 18.208ZM113.703 19.576C113.367 19.576 112.935 18.856 112.743 17.368C112.023 12.136 114.135 1.96 114.687 1.504C114.831 1.36 114.999 1.36 115.071 1.36C115.191 1.264 115.455 1.144 115.671 1.144C115.887 1.144 115.959 1.288 116.007 1.384C116.223 1.48 116.271 1.576 116.199 1.816C115.143 5.224 114.015 12.088 114.135 16.48C114.159 17.896 114.135 19.576 113.703 19.576ZM105.615 14.56C103.527 14.2 102.543 12.568 102.591 10.48C102.639 7.984 104.103 4.84 106.623 2.536C107.799 1.48 108.687 1.072 109.215 1.072C110.007 1.072 109.959 2.032 109.695 2.584C109.359 2.344 108.495 2.944 107.823 3.568C109.599 4.552 110.511 6.376 110.463 8.344C110.415 11.224 108.447 14.08 105.615 14.56ZM104.247 10.504C104.223 11.896 104.679 12.928 105.807 13.216C107.679 12.592 108.975 10.408 108.999 8.344C109.023 6.736 108.327 5.272 106.791 4.576C105.207 6.304 104.295 8.68 104.247 10.504ZM134.631 19.576C134.295 19.576 133.887 18.856 133.695 17.392C133.431 15.544 133.527 13.096 133.791 10.672L133.671 10.696C133.503 10.744 133.359 10.648 133.287 10.312C133.143 10.024 133.047 9.832 133.047 9.688C133.047 9.52 133.143 9.28 133.455 9.208C133.599 9.184 133.791 9.136 133.983 9.112C134.511 5.224 135.351 1.768 135.663 1.504C135.783 1.36 135.951 1.36 136.023 1.36C136.167 1.264 136.431 1.144 136.623 1.144C136.839 1.144 136.911 1.264 136.935 1.384C137.151 1.48 137.223 1.576 137.127 1.816C136.575 3.544 136.023 6.16 135.615 8.872C136.215 8.8 136.791 8.752 137.199 8.728C138.087 8.68 139.503 8.728 139.503 9.304C139.503 9.688 138.495 9.952 137.583 10.072L135.423 10.384C135.135 12.568 134.991 14.728 135.039 16.48C135.063 17.896 135.039 19.576 134.631 19.576ZM130.143 1.384C130.935 1.384 130.935 2.296 130.719 2.896C130.575 2.752 130.311 2.872 130.047 3.04C129.735 3.256 129.231 3.688 128.799 4.12C130.599 5.56 131.343 7.696 131.271 9.928C131.199 13.312 129.279 16.72 126.351 17.2C124.287 16.864 123.279 15.208 123.327 12.544C123.447 6.784 128.319 1.384 130.143 1.384ZM124.983 12.616C124.935 14.632 125.487 15.688 126.519 15.856C128.439 15.28 129.759 12.592 129.807 9.976C129.855 8.152 129.279 6.256 127.887 5.176C126.375 6.952 125.055 9.616 124.983 12.616ZM139.61 14.68C139.418 14.752 139.274 14.656 139.202 14.248C138.745 13.744 138.577 13.456 139.346 13.192C140.906 12.664 148.274 12.016 151.057 12.184C152.522 12.28 153.218 12.544 153.218 12.88C153.218 13.216 152.546 13.48 151.13 13.552C147.698 13.576 141.842 14.176 139.61 14.68ZM143.594 26.296C142.946 26.2 142.778 26.104 142.514 25.696C141.746 25.6 141.41 25.12 141.41 24.424C141.41 22.6 144.53 19.96 148.61 18.184C148.13 17.248 145.226 17.152 143.93 18.016C143.69 18.184 143.57 18.376 143.594 18.544C142.778 18.592 142.394 18.112 142.394 17.608C142.394 16.48 144.29 15.76 146.186 15.76C148.13 15.76 149.738 16.504 149.57 17.992C150.122 18.424 150.266 19.264 149.762 19.48C146.306 20.848 143.33 23.176 142.994 24.568C144.17 25.12 147.986 24.76 149.522 23.752C149.954 23.152 150.866 23.584 150.866 24.4C150.866 24.856 150.578 25.12 149.858 25.456C148.298 26.176 145.826 26.608 143.594 26.296ZM142.13 3.112C141.914 3.208 141.77 3.112 141.674 2.68C141.53 2.512 141.338 2.296 141.338 2.08C141.338 1.96 141.482 1.768 141.938 1.648C143.042 1.384 146.378 1.144 148.178 1.144C150.29 1.144 150.842 1.552 150.842 1.816C150.842 2.152 149.93 2.392 148.538 2.464C148.322 2.464 148.082 2.464 147.818 2.488C145.346 4.576 143.978 8.584 144.242 8.944C145.898 8.968 147.89 8.584 149.618 7.504C149.906 7.336 150.626 7.024 150.962 7.168C151.322 7.336 150.938 8.224 150.434 8.68C149.066 9.904 146.306 10.456 145.178 10.432C144.914 10.432 144.794 10.384 144.194 10C143.09 10.48 142.465 10.048 142.465 9.016C142.465 7.144 144.074 4.36 145.634 2.632C144.29 2.776 142.922 2.944 142.13 3.112Z" fill="#1F3C28"/>
</svg>
