<svg width="13" height="13" viewBox="0 0 13 13" fill="none" xmlns="http://www.w3.org/2000/svg">
<path d="M6.734 12.342C6.302 12.468 5.42 12.414 5.042 12.27C4.322 12 3.818 11.55 3.512 10.92C3.242 10.362 2.936 9.93 2.612 9.588L2.108 8.994L1.73 8.526C1.604 8.4 1.424 8.094 1.154 7.572L0.65 6.582C0.506 6.312 0.416 6.096 0.398 5.934C0.38 5.772 0.38 5.358 0.416 4.728C0.47 3.414 0.488 3.342 0.938 2.622L1.262 2.028C1.622 1.29 2.072 0.911999 2.738 0.768C2.954 0.713999 3.44 0.75 4.178 0.875999C5.06 1.02 5.33 1.182 5.906 1.956C6.104 2.208 6.248 2.424 6.374 2.622C6.482 2.802 6.554 2.892 6.572 2.874C6.608 2.874 6.698 2.73 6.824 2.46C7.112 1.866 7.706 1.398 8.606 1.02C8.948 0.875999 9.38 0.858 9.92 0.965999L10.496 1.074C10.748 1.11 10.892 1.146 10.946 1.164C12.17 1.668 12.998 2.892 12.764 3.9C12.71 4.098 12.674 4.512 12.656 5.142C12.638 5.736 12.584 6.114 12.53 6.276C12.476 6.438 12.44 6.744 12.422 7.23C12.386 7.734 12.35 8.04 12.314 8.13C12.134 8.652 11.882 9.138 11.54 9.552C11.342 9.84 10.298 10.812 9.74 11.262C8.93 11.91 8.606 12.072 7.976 12.126C7.49 12.18 7.076 12.252 6.734 12.342ZM6.572 10.488C6.428 10.722 6.86 10.578 6.752 10.47C6.698 10.38 6.626 10.398 6.572 10.488ZM6.716 6.978C6.77 6.942 6.788 6.87 6.788 6.762C6.788 6.654 6.77 6.6 6.752 6.582C6.734 6.564 6.716 6.582 6.716 6.618C6.698 6.636 6.698 6.654 6.698 6.672C6.698 6.762 6.68 6.852 6.662 6.924C6.644 7.05 6.644 7.05 6.716 6.978ZM2.774 2.82C2.792 2.838 2.828 2.802 2.882 2.748C2.954 2.676 2.99 2.622 2.99 2.586C2.99 2.478 2.954 2.478 2.864 2.604C2.846 2.622 2.846 2.622 2.846 2.64C2.792 2.73 2.756 2.802 2.774 2.82ZM11.054 3.81C11.18 3.756 11.09 3.396 10.928 3.162C10.766 2.964 10.676 2.928 10.64 3.036C10.64 3.09 10.658 3.126 10.676 3.162C10.694 3.18 10.748 3.288 10.802 3.468C10.856 3.612 10.892 3.702 10.946 3.756C10.982 3.81 11.018 3.828 11.054 3.81Z" fill="#FB87B1"/>
</svg>
