<svg width="13" height="14" viewBox="0 0 13 14" fill="none" xmlns="http://www.w3.org/2000/svg">
<g clip-path="url(#clip0_548_98)">
<path d="M10.292 0.5C10.6475 0.500043 10.9996 0.569994 11.3281 0.706055C11.6567 0.842161 11.9555 1.04148 12.207 1.29297C12.4585 1.54446 12.6578 1.84328 12.7939 2.17188C12.93 2.50036 13 2.85246 13 3.20801V10.792C13 11.1475 12.93 11.4996 12.7939 11.8281C12.6578 12.1567 12.4585 12.4555 12.207 12.707C11.9555 12.9585 11.6567 13.1578 11.3281 13.2939C10.9996 13.43 10.6475 13.5 10.292 13.5H2.70801C1.98983 13.4999 1.3008 13.2149 0.792969 12.707C0.541477 12.4555 0.342161 12.1567 0.206055 11.8281C0.0699944 11.4996 4.26805e-05 11.1475 0 10.792V3.20801C8.62209e-05 2.48983 0.285134 1.8008 0.792969 1.29297C1.3008 0.785134 1.98983 0.500086 2.70801 0.5H10.292ZM6.5 3.04004C3.95958 3.04004 1.89586 4.67108 1.91211 6.68066C1.94574 7.34836 2.1667 7.99312 2.5498 8.54102C2.93301 9.089 3.46334 9.51759 4.0791 9.77832C3.9816 10.1358 3.74859 11.0247 3.68359 11.2793C3.61863 11.5338 3.77014 11.5279 3.87305 11.4629L5.64453 10.25C5.92744 10.2956 6.21345 10.319 6.5 10.3203C9.04031 10.3203 11.1043 8.69555 11.1045 6.68066C11.1045 4.66566 9.04042 3.04004 6.5 3.04004Z" fill="#FFE000"/>
</g>
<defs>
<clipPath id="clip0_548_98">
<rect width="13" height="13" fill="white" transform="translate(0 0.5)"/>
</clipPath>
</defs>
</svg>
