<svg width="104" height="86" viewBox="0 0 104 86" fill="none" xmlns="http://www.w3.org/2000/svg">
<g filter="url(#filter0_d_483_202)">
<path d="M43.5029 84.95C39.6329 84.95 38.1029 83.33 38.1029 79.91V5.93C38.1029 2.6 39.7229 0.889996 43.5029 0.889996C47.3729 0.889996 48.9029 2.6 48.9029 5.93V79.91C48.9029 83.33 47.4629 84.95 43.5029 84.95ZM9.84285 82.7C6.78285 82.07 4.98285 80.18 5.88285 76.49L20.4629 12.68H4.89285C1.65285 12.68 0.302852 11.33 0.302852 7.63999C0.302852 3.94999 1.65285 2.6 4.89285 2.6H26.4929C30.9929 2.6 32.7029 6.01999 31.5329 10.52L15.9629 78.74C14.9729 82.97 13.1729 83.33 9.84285 82.7ZM76.6123 25.37L62.3023 35.54C59.7823 37.34 57.6223 36.89 55.5523 34.01C53.4823 31.22 54.0223 28.61 56.5423 26.81L71.2123 16.19V12.05H60.4123C57.1723 12.05 55.9123 10.61 55.9123 7.1C55.9123 3.59 57.1723 2.15 60.4123 2.15H92.8123C96.0523 2.15 97.3123 3.59 97.3123 7.1C97.3123 10.61 96.0523 12.05 92.8123 12.05H82.0123V16.19L96.6823 26.81C99.2023 28.61 99.5623 31.13 97.6723 34.01C95.7823 36.89 93.2623 37.34 90.9223 35.54L76.6123 25.37ZM55.4623 40.58H97.6723C101.002 40.58 102.352 42.02 102.352 45.62C102.352 49.13 101.002 50.66 97.6723 50.66H83.2723V60.92C83.2723 64.34 81.8323 65.96 77.8723 65.96C74.0023 65.96 72.4723 64.34 72.4723 60.92V50.66H55.4623C52.2223 50.66 50.8723 49.13 50.8723 45.62C50.8723 42.02 52.2223 40.58 55.4623 40.58ZM67.2523 74.69H94.5223C97.8523 74.69 99.2023 76.04 99.2023 79.82C99.2023 83.69 97.8523 84.95 94.5223 84.95H61.8523C57.9823 84.95 56.3623 83.24 56.3623 79.64V62.18C56.3623 58.85 57.8923 57.23 61.7623 57.23C65.7223 57.23 67.2523 58.85 67.2523 62.18V74.69Z" fill="#FB87B1"/>
</g>
<defs>
<filter id="filter0_d_483_202" x="0.302856" y="0.889893" width="103.049" height="85.0601" filterUnits="userSpaceOnUse" color-interpolation-filters="sRGB">
<feFlood flood-opacity="0" result="BackgroundImageFix"/>
<feColorMatrix in="SourceAlpha" type="matrix" values="0 0 0 0 0 0 0 0 0 0 0 0 0 0 0 0 0 0 127 0" result="hardAlpha"/>
<feOffset dx="1" dy="1"/>
<feComposite in2="hardAlpha" operator="out"/>
<feColorMatrix type="matrix" values="0 0 0 0 0 0 0 0 0 0 0 0 0 0 0 0 0 0 0.25 0"/>
<feBlend mode="normal" in2="BackgroundImageFix" result="effect1_dropShadow_483_202"/>
<feBlend mode="normal" in="SourceGraphic" in2="effect1_dropShadow_483_202" result="shape"/>
</filter>
</defs>
</svg>
