<svg width="111" height="86" viewBox="0 0 111 86" fill="none" xmlns="http://www.w3.org/2000/svg">
<g filter="url(#filter0_d_483_204)">
<path d="M47.7447 34.55H49.9947C53.2347 34.55 54.5847 35.99 54.5847 39.59C54.5847 43.28 53.2347 44.72 49.9947 44.72H47.7447V79.91C47.7447 83.33 46.3047 84.95 42.3447 84.95C38.4747 84.95 36.9447 83.33 36.9447 79.91V5.93C36.9447 2.6 38.5647 0.889996 42.3447 0.889996C46.2147 0.889996 47.7447 2.6 47.7447 5.93V34.55ZM11.0247 72.98H27.5847C30.8247 72.98 32.1747 74.51 32.1747 77.93C32.1747 81.44 30.8247 82.88 27.5847 82.88H5.53473C1.93473 82.88 0.314727 81.26 0.314727 77.93V7.63999C0.314727 4.04 1.93473 2.42 5.53473 2.42H24.9747C28.2147 2.42 29.5647 3.86 29.5647 7.37C29.5647 10.79 28.2147 12.32 24.9747 12.32H11.0247V72.98ZM103.919 0.889996C107.609 0.889996 109.139 2.6 109.139 5.93V79.91C109.139 83.33 107.699 84.95 103.919 84.95C100.139 84.95 98.6088 83.33 98.6088 79.91V5.93C98.6088 2.6 100.229 0.889996 103.919 0.889996ZM90.6888 1.42999C94.3788 1.42999 95.8188 3.05 95.8188 6.47V79.46C95.8188 82.88 94.4688 84.5 90.6888 84.5C87.0888 84.5 85.5588 82.88 85.5588 79.46V58.13H81.0588V69.38C81.0588 78.56 76.2888 83.51 67.8288 83.51C59.3688 83.51 54.5988 78.56 54.5988 69.38V15.92C54.5988 6.74 59.3688 1.79 67.8288 1.79C76.2888 1.79 81.0588 6.74 81.0588 15.92V20.24H85.5588V6.47C85.5588 3.05 87.0888 1.42999 90.6888 1.42999ZM70.7988 69.11V16.19C70.7988 12.59 69.8988 11.06 67.8288 11.06C65.7588 11.06 64.8588 12.59 64.8588 16.19V69.11C64.8588 72.71 65.7588 74.24 67.8288 74.24C69.8988 74.24 70.7988 72.71 70.7988 69.11ZM81.0588 30.23V48.05H85.5588V30.23H81.0588Z" fill="#FB87B1"/>
</g>
<defs>
<filter id="filter0_d_483_204" x="0.314697" y="0.889893" width="109.824" height="85.0601" filterUnits="userSpaceOnUse" color-interpolation-filters="sRGB">
<feFlood flood-opacity="0" result="BackgroundImageFix"/>
<feColorMatrix in="SourceAlpha" type="matrix" values="0 0 0 0 0 0 0 0 0 0 0 0 0 0 0 0 0 0 127 0" result="hardAlpha"/>
<feOffset dx="1" dy="1"/>
<feComposite in2="hardAlpha" operator="out"/>
<feColorMatrix type="matrix" values="0 0 0 0 0 0 0 0 0 0 0 0 0 0 0 0 0 0 0.25 0"/>
<feBlend mode="normal" in2="BackgroundImageFix" result="effect1_dropShadow_483_204"/>
<feBlend mode="normal" in="SourceGraphic" in2="effect1_dropShadow_483_204" result="shape"/>
</filter>
</defs>
</svg>
